<?xml version="1.0" encoding="utf-8"?>
<!-- Generator: Adobe Illustrator 26.5.0, SVG Export Plug-In . SVG Version: 6.00 Build 0)  -->
<svg version="1.1" id="Layer_1" xmlns="http://www.w3.org/2000/svg" xmlns:xlink="http://www.w3.org/1999/xlink" x="0px" y="0px"
	 viewBox="0 0 837.2 275.4" style="enable-background:new 0 0 837.2 275.4;" xml:space="preserve">
<style type="text/css">
	.st0{fill:#FFFFFF;}
</style>
<g>
	<path class="st0" d="M24,274.2l16.7-53.6l3.4-13h0.3l3.7,13.1l16.3,53.5h22.3l-29.1-83.3h-26L2.2,274.2H24L24,274.2z M67.6,255.4
		v-14.8H21.3v14.8H67.6L67.6,255.4z M128.7,272.2c3.6-2.1,6.4-5.4,8.5-9.9l0.6,11.9H157v-63.1h-21.4v33.8c0,2.4-0.3,4.6-0.8,6.4
		c-0.5,1.8-1.3,3.3-2.3,4.4c-1,1.1-2.2,2-3.5,2.5c-1.3,0.5-2.8,0.8-4.3,0.8c-2.9,0-5.2-0.8-6.8-2.4c-1.6-1.6-2.4-4.4-2.4-8.5v-37.1
		H93.9v42.1c0,5.3,0.9,9.6,2.8,12.9c1.8,3.3,4.4,5.7,7.6,7.1c3.2,1.5,7,2.2,11.3,2.2C120.7,275.4,125.1,274.4,128.7,272.2
		L128.7,272.2z M177.3,197v58.3c0.1,4.9,1.1,8.8,3,11.7c1.9,2.9,4.6,5.1,8.1,6.4c3.5,1.3,7.6,2,12.4,2c3.4,0,6.6-0.4,9.8-1.3
		c3.2-0.8,5.8-2,7.9-3.5l-2.3-13.2c-1.2,0.9-2.5,1.6-4,2.1c-1.5,0.5-3.2,0.7-5.2,0.7c-2.6,0-4.6-0.6-6.1-2c-1.5-1.3-2.2-3.5-2.2-6.5
		V191L177.3,197L177.3,197z M166.5,211.1v15.3h51.1v-15.3H166.5L166.5,211.1z M240.3,213.7c-5,2.6-9,6.3-11.8,11.2
		c-2.8,4.9-4.2,10.8-4.2,17.7c0,6.9,1.4,12.8,4.2,17.7c2.8,4.9,6.7,8.7,11.8,11.2c5,2.6,10.8,3.8,17.3,3.8c6.6,0,12.5-1.3,17.5-3.8
		c5-2.6,8.9-6.3,11.7-11.2c2.8-4.9,4.2-10.8,4.2-17.7c0-6.9-1.4-12.8-4.2-17.7c-2.8-4.9-6.7-8.7-11.7-11.2c-5-2.6-10.8-3.8-17.5-3.8
		C251.1,209.8,245.3,211.1,240.3,213.7L240.3,213.7z M264,226.9c1.8,1.2,3.1,3.1,4,5.7c0.9,2.6,1.4,6,1.4,10.1c0,4.1-0.5,7.5-1.4,10
		c-0.9,2.6-2.3,4.5-4,5.7c-1.8,1.2-3.9,1.8-6.4,1.8c-2.4,0-4.5-0.6-6.3-1.8c-1.8-1.2-3.1-3.1-4-5.7c-0.9-2.6-1.4-5.9-1.4-10
		c0-4.1,0.5-7.5,1.4-10.1c0.9-2.6,2.3-4.5,4-5.7c1.8-1.2,3.9-1.8,6.3-1.8C260.1,225.1,262.2,225.7,264,226.9L264,226.9z
		 M324.5,274.2v-33.3c0-3.4,0.5-6.2,1.5-8.4c1-2.1,2.4-3.7,4.1-4.7c1.7-1,3.6-1.5,5.5-1.5c2.5,0,4.6,0.8,6.2,2.4
		c1.6,1.6,2.4,4.4,2.4,8.5v37.1h21.4v-33.7c0-3.2,0.5-5.8,1.4-7.9c0.9-2.1,2.2-3.7,4-4.7c1.7-1.1,3.6-1.6,5.7-1.6
		c2.6,0,4.7,0.8,6.2,2.4c1.6,1.6,2.3,4.4,2.3,8.5v37.1h21.4v-42c0-5-0.9-9.1-2.8-12.4c-1.9-3.3-4.4-5.8-7.6-7.4
		c-3.2-1.6-6.9-2.5-11.1-2.5c-2.9,0-5.8,0.5-8.6,1.4c-2.8,0.9-5.2,2.3-7.4,4.2c-2.1,1.9-3.9,4.2-5.2,6.9c-1.7-4.1-4.2-7.2-7.7-9.3
		c-3.4-2.1-7.5-3.2-12.2-3.2c-4.8,0-9,1.1-12.7,3.4c-3.7,2.3-6.5,5.6-8.5,10.1l-0.6-12.2h-19.2v63.1H324.5L324.5,274.2z M457,250.8
		c0,1.9-0.3,3.4-0.9,4.8c-0.6,1.3-1.4,2.5-2.4,3.3c-1,0.9-2.2,1.5-3.5,2c-1.3,0.4-2.7,0.6-4.1,0.6c-1.9,0-3.4-0.5-4.8-1.4
		c-1.3-0.9-2-2.3-2-4.2c0-1.9,0.6-3.4,1.8-4.4c1.2-1,3.1-1.7,5.6-2.2l12.1-2.5l0.1-11.4l-23.8,4.9c-5.9,1.2-10.2,3.3-12.9,6.2
		c-2.7,3-4.1,6.7-4.1,11.3c0,3.8,0.9,7,2.6,9.5c1.7,2.6,4.2,4.5,7.4,5.9c3.2,1.3,6.9,2,11.2,2c3.7,0,7.3-0.6,10.7-1.8
		c3.4-1.2,6.2-3,8.3-5.4c2.1-2.4,3.2-5.5,3.2-9.1l-2.4,0.9v0.8c0,3.3,0.7,6,2.1,8.1c1.4,2.1,3.4,3.7,5.9,4.8
		c2.5,1.1,5.4,1.6,8.7,1.6c3.6,0,6.7-0.6,9.2-1.8l1.3-12.2c-0.9,0.3-2.1,0.5-3.7,0.5c-2.9,0-4.4-1.6-4.4-4.9v-23.1
		c0-5.2-1.2-9.6-3.5-13.2c-2.3-3.6-5.6-6.3-10-8.1c-4.3-1.8-9.6-2.7-15.7-2.7c-9.2,0-16.3,1.8-21.3,5.4c-5,3.6-8.2,8.5-9.3,14.5
		l18.2,4.3c0.8-3.5,2.1-6,4.1-7.4c2-1.4,4.4-2.1,7.1-2.1c2.8,0,5,0.9,6.6,2.6c1.6,1.7,2.5,4.1,2.5,7V250.8L457,250.8z M497.2,197
		v58.3c0.1,4.9,1.1,8.8,3,11.7c1.9,2.9,4.6,5.1,8.1,6.4c3.5,1.3,7.6,2,12.4,2c3.4,0,6.6-0.4,9.8-1.3c3.2-0.8,5.8-2,7.9-3.5
		l-2.3-13.2c-1.2,0.9-2.5,1.6-4,2.1c-1.5,0.5-3.2,0.7-5.2,0.7c-2.6,0-4.6-0.6-6.1-2c-1.5-1.3-2.2-3.5-2.2-6.5V191L497.2,197
		L497.2,197z M486.4,211.1v15.3h51.1v-15.3H486.4L486.4,211.1z M567.6,205c2-1.6,3-4.2,3-7.8c0-3.6-1-6.2-3-7.9
		c-2-1.6-5.2-2.5-9.5-2.5c-4.4,0-7.5,0.8-9.5,2.5c-2,1.6-3,4.3-3,7.9c0,3.5,1,6.1,3,7.8c2,1.6,5.2,2.5,9.5,2.5
		C562.5,207.5,565.6,206.7,567.6,205L567.6,205z M547.4,218.6v55.6h21.4V213L547.4,218.6L547.4,218.6z M596.9,213.7
		c-5,2.6-9,6.3-11.8,11.2c-2.8,4.9-4.2,10.8-4.2,17.7c0,6.9,1.4,12.8,4.2,17.7c2.8,4.9,6.7,8.7,11.8,11.2c5,2.6,10.8,3.8,17.3,3.8
		c6.6,0,12.5-1.3,17.5-3.8c5-2.6,8.9-6.3,11.7-11.2c2.8-4.9,4.2-10.8,4.2-17.7c0-6.9-1.4-12.8-4.2-17.7c-2.8-4.9-6.7-8.7-11.7-11.2
		c-5-2.6-10.8-3.8-17.5-3.8C607.7,209.8,601.9,211.1,596.9,213.7L596.9,213.7z M620.6,226.9c1.8,1.2,3.1,3.1,4,5.7
		c0.9,2.6,1.4,6,1.4,10.1c0,4.1-0.5,7.5-1.4,10c-0.9,2.6-2.3,4.5-4,5.7c-1.8,1.2-3.9,1.8-6.4,1.8c-2.4,0-4.5-0.6-6.3-1.8
		c-1.8-1.2-3.1-3.1-4-5.7c-0.9-2.6-1.4-5.9-1.4-10c0-4.1,0.5-7.5,1.4-10.1c0.9-2.6,2.3-4.5,4-5.7c1.8-1.2,3.9-1.8,6.3-1.8
		C616.7,225.1,618.8,225.7,620.6,226.9L620.6,226.9z M681.2,274.2v-33.4c0-3.5,0.5-6.3,1.5-8.5c1-2.1,2.4-3.6,4.2-4.6
		c1.8-1,3.7-1.5,5.7-1.5c2.6,0,4.8,0.8,6.4,2.5c1.7,1.7,2.5,4.7,2.5,9.1v36.3h21.4v-42c0-5-0.9-9.1-2.8-12.4
		c-1.9-3.3-4.4-5.8-7.6-7.4c-3.2-1.7-7-2.5-11.4-2.5c-4,0-7.7,0.8-10.9,2.3c-3.2,1.6-5.9,3.8-8.1,6.9c-2.1,3-3.6,6.8-4.5,11.4
		l2.4,2.4l-1.1-21.7h-19.2v63.1H681.2L681.2,274.2z"/>
	<path class="st0" d="M245.8,152c7.2-2.3,13.4-5.7,18.6-10.2c5.3-4.5,9-9.9,11.1-16.3L244.5,115c-1.7,4.1-4.2,7.3-7.7,9.6
		c-3.4,2.3-8,3.4-13.8,3.4c-5.2,0-9.6-1.1-13.3-3.2c-3.7-2.1-6.5-5.5-8.5-10.1c-2-4.6-3-10.7-3-18.3c0-7.6,0.9-13.8,2.6-18.6
		c1.8-4.8,4.3-8.3,7.8-10.6c3.4-2.3,7.6-3.4,12.5-3.4c6.9,0,11.9,2.4,15.2,7.3c3.3,4.9,4.9,11.9,4.9,21l18.7-7.3h-73.6v21h90.5
		c0.3-1.8,0.5-4.1,0.7-6.7c0.2-2.7,0.2-5.4,0.2-8.3c0-10.5-2.2-19.8-6.7-28c-4.5-8.2-10.9-14.6-19.3-19.2c-8.4-4.6-18.6-7-30.6-7
		c-11.7,0-22.1,2.4-31.2,7.1c-9.1,4.7-16.1,11.5-21,20.2c-5,8.8-7.4,19.5-7.4,32.1c0,12.7,2.5,23.4,7.4,32.1
		c5,8.8,12,15.5,21.3,20.2c9.2,4.7,20.1,7.1,32.6,7.1C231,155.4,238.7,154.3,245.8,152L245.8,152z M346.2,126l-23.5-87.1h-40.9
		l41.1,114.3h46.4l41.1-114.3h-40.2L346.2,126L346.2,126z M455,9.3c-11.1,6.2-19.7,15.1-25.6,26.6c-5.9,11.6-8.9,25.5-8.9,41.8
		c0,16.3,3,30.3,8.9,41.8c5.9,11.6,14.5,20.5,25.6,26.6c11.1,6.2,24.3,9.3,39.5,9.3c15.2,0,28.4-3.1,39.4-9.3
		c11-6.2,19.5-15,25.5-26.6c5.9-11.6,8.9-25.5,8.9-41.8c0-16.3-3-30.2-8.9-41.8C553.5,24.3,545,15.4,534,9.3
		C522.9,3.1,509.8,0,494.5,0C479.3,0,466.1,3.1,455,9.3L455,9.3z M512.9,36.1c5,3.5,8.7,8.7,11.3,15.7c2.6,6.9,3.9,15.6,3.9,25.9
		c0,10.2-1.3,18.8-3.9,25.8c-2.6,7-6.4,12.3-11.3,15.8c-5,3.5-11.1,5.3-18.4,5.3c-7.3,0-13.5-1.8-18.5-5.3c-5-3.5-8.8-8.8-11.4-15.8
		c-2.6-7-3.9-15.6-3.9-25.8c0-10.4,1.3-19,3.9-25.9c2.6-6.9,6.4-12.2,11.4-15.7c5-3.5,11.2-5.3,18.5-5.3
		C501.9,30.9,508,32.6,512.9,36.1L512.9,36.1z M631,176.1v-58.9l-3.7,5.5c2.1,9.5,6.4,17.3,12.8,23.4c6.4,6.2,14.8,9.3,25.1,9.3
		c9.4,0,17.7-2.4,24.8-7.1c7.1-4.7,12.6-11.6,16.6-20.6c4-9,5.9-19.7,5.9-32.2c0-12.5-1.9-23.1-5.8-31.9
		c-3.9-8.8-9.3-15.5-16.3-20.1c-7-4.6-15.2-7-24.7-7c-7.5,0-14.1,1.7-19.9,5c-5.8,3.4-10.5,7.9-14.2,13.7c-3.7,5.8-6,12.5-7.1,20.1
		l4.6,4.8l-2.1-41.4h-35v148.9L631,176.1L631,176.1z M640.6,123.2c-3.2-2.4-5.6-6-7.2-10.6c-1.6-4.6-2.4-10.2-2.4-16.6
		c0-6.7,0.9-12.3,2.6-16.9c1.8-4.6,4.2-8,7.4-10.4c3.2-2.4,6.9-3.5,11.2-3.5c6.7,0,11.9,2.5,15.7,7.4c3.7,5,5.6,12.8,5.6,23.4
		c0,10.7-1.9,18.5-5.7,23.4c-3.8,5-9.1,7.4-15.8,7.4C647.6,126.9,643.8,125.7,640.6,123.2L640.6,123.2z M813.4,150.3
		c7.9-3.4,13.9-8.2,17.8-14.2c4-6,5.9-12.6,5.9-19.8c0-8.1-2.6-14.9-7.8-20.6c-5.2-5.6-13.6-9.5-25.4-11.7L783.3,80
		c-5.2-1.1-8.7-2.3-10.6-3.8c-1.9-1.4-2.9-3.2-2.9-5.1c0-1.7,0.6-3.2,1.8-4.5c1.2-1.3,3.1-2.3,5.6-3c2.5-0.7,5.5-1,9-1
		c5.9,0,11.8,1.3,17.6,3.8c5.8,2.5,10.5,6.1,14.2,10.9l18.7-21c-5.3-6.4-12.4-11.3-21.3-14.6c-8.8-3.4-19.1-5-30.6-5
		c-12.2,0-22.3,1.8-30.3,5.5c-8,3.7-13.9,8.3-17.8,13.9c-3.9,5.6-5.8,11.6-5.8,17.8c0,9.3,3,16.8,9.1,22.5
		c6.1,5.7,16.4,10,30.9,12.9l15.8,3c4.6,1.1,7.6,2.2,9.1,3.5c1.5,1.3,2.3,3,2.3,5.1c0,3.1-1.5,5.2-4.6,6.5c-3.1,1.3-7,1.9-11.9,1.9
		c-7.8,0-14.8-1.6-21-4.9c-6.3-3.3-11.4-7.4-15.3-12.2L727,133.7c6.6,7,14.7,12.4,24.6,16.1c9.8,3.7,20.5,5.6,31.9,5.6
		C795.5,155.4,805.5,153.7,813.4,150.3L813.4,150.3z"/>
	<path class="st0" d="M87,129c4.3,0,7.9-3.5,7.9-7.9c0-4.3-3.5-7.9-7.9-7.9c-3.1,0-5.9,1.8-7.1,4.6H33.7V69.1h5.6v43.1h45.1
		c3.5,0,6.9-0.8,10-2.5l8,9.7l0.3,0.4l0.1,0l0,0l0.3-0.3c0.2-0.1,0.4-0.2,0.6-0.4c0.3-0.2,0.6-0.3,0.8-0.5
		c6.2-4.4,11.1-10.5,14.7-18.1c3.6-7.6,5.5-16,5.5-24.8c0-8.9-1.8-17.3-5.5-24.9c-3.6-7.6-8.6-13.7-14.7-18
		c-6.2-4.4-12.9-6.6-20.1-6.6H26.2v99.2h54.3C82,127.6,84.4,129,87,129L87,129z M103.4,101.5c5.2-7.1,7.9-15.7,7.9-25.7
		c0-9.9-2.6-18.6-7.9-25.7c-5.3-7.2-11.6-10.8-19-10.8H50.5c-1.5-2.1-3.8-3.4-6.3-3.4c-4.3,0-7.9,3.5-7.9,7.9c0,4.3,3.5,7.9,7.9,7.9
		c3.2,0,6-1.9,7.2-4.9h32.9c5.2,0,9.7,2.8,13.5,8.4c3.8,5.6,5.7,12.5,5.7,20.6c0,8-1.9,14.9-5.7,20.5c-3.7,5.6-8.3,8.4-13.5,8.4
		H46.8V62.1l-0.1-0.5l-13,0V33.7h50.7c5.8,0,11.3,1.9,16.2,5.6c5,3.7,9,8.9,11.9,15.3c3,6.4,4.5,13.6,4.5,21.2
		c0,11.5-3.3,21.5-9.7,29.7c-1.1,1.4-2.3,2.7-3.5,3.9l-3.6-4.3C101.4,103.9,102.5,102.7,103.4,101.5L103.4,101.5z"/>
	<path class="st0" d="M142.4,37.8c-5.9-11.3-14-20.4-24-27.1c0,0,0-0.1,0-0.1c0.1-0.3,0.2-0.5,0.2-0.9c0-4.3-3.5-7.9-7.9-7.9
		c-4.3,0-7.9,3.5-7.9,7.9c0,4.3,3.5,7.9,7.9,7.9c1,0,2.1-0.2,3.1-0.7c4.6,3,8.8,6.6,12.3,10.6c5.3,6.1,9.7,13.4,12.9,21.8
		c3.2,8.4,4.8,17.3,4.8,26.5c0,9.2-1.6,18.1-4.8,26.5c-3.2,8.4-7.5,15.8-12.9,21.8c-5.3,6-11.7,10.9-19,14.5
		c-7.3,3.6-15,5.4-22.8,5.4H7.5v-25h5.6v19.5h71.3c9.5,0,18.5-2.8,26.7-8.4c8.2-5.6,14.8-13.3,19.7-22.9c4.9-9.6,7.3-20.2,7.3-31.4
		c0-11.2-2.5-21.8-7.3-31.4c-4.9-9.6-11.5-17.3-19.7-22.9c-4.6-3.1-9.8-5.4-15.3-6.8l1.8-13.2l-4.3-0.6C89.8,0.3,87,0,84.4,0H0
		v151.5h84.4c8.9,0,17.6-2,25.8-6c8.2-4,15.5-9.4,21.5-16.2c6-6.7,10.9-14.9,14.5-24.2c3.6-9.3,5.4-19.2,5.4-29.4
		C151.6,62.2,148.5,49.4,142.4,37.8L142.4,37.8z M88.4,13.4l-0.4,0c-1.2-0.1-2.4-0.2-3.6-0.2H13.1v75.2c-2.6,1.4-4.2,4-4.2,6.9
		c0,4.3,3.5,7.9,7.9,7.9c4.3,0,7.9-3.5,7.9-7.9c0-2.8-1.5-5.3-4-6.8V20.6h63.8c8.1,0,15.8,2.5,22.8,7.4c7,4.9,12.7,11.7,16.9,20.1
		c4.2,8.5,6.3,17.8,6.3,27.6c0,9.9-2.1,19.3-6.3,27.7c-4.2,8.4-9.9,15.2-16.9,20.1c-7,4.9-14.7,7.4-22.9,7.4H20.6v-19.5l-13.1,0V7.5
		h76.9c1.5,0,3.1,0.1,4.8,0.3L88.4,13.4L88.4,13.4z"/>
</g>
</svg>
